<svg xmlns="http://www.w3.org/2000/svg" viewBox="0 0 48 48">
  <style>
    .cls-1 { fill: none; stroke: currentColor; stroke-linecap: round; stroke-linejoin: round; }
  </style>
  <path class="cls-1" style="stroke-width:1.4" d="m 20.923,34.088 a 7.686,7.609 66.375 0 0 -0.314,-0.878 7.686,7.609 66.375 0 0 -0.432,-0.827 l 1.195,-2.244 a 0.465,0.461 66.375 0 0 -0.139,-0.605 l -3.056,-2.274 a 0.465,0.461 66.375 0 0 -0.61,0.043 l -1.772,1.821 a 7.295,7.222 66.375 0 0 -1.833,-0.214 l -1.337,-2.172 a 0.465,0.461 66.375 0 0 -0.582,-0.182 l -3.469,1.517 a 0.465,0.461 66.375 0 0 -0.262,0.551 l 0.687,2.457 a 7.146,7.075 66.375 0 0 -1.087,1.491 l -2.549,0.069 a 0.465,0.461 66.375 0 0 -0.445,0.418 l -0.405,3.787 a 0.465,0.461 66.375 0 0 0.35,0.512 l 2.455,0.648 a 7.751,7.674 66.375 0 0 0.314,0.878 7.686,7.609 66.375 0 0 0.432,0.827 l -1.191,2.242 a 0.465,0.461 66.375 0 0 0.139,0.605 l 3.056,2.274 a 0.465,0.461 66.375 0 0 0.61,-0.043 l 1.772,-1.821 a 7.295,7.222 66.375 0 0 1.833,0.214 l 1.337,2.172 a 0.465,0.461 66.375 0 0 0.582,0.182 l 3.46,-1.514 a 0.465,0.461 66.375 0 0 0.262,-0.551 l -0.687,-2.457 a 7.146,7.075 66.375 0 0 1.087,-1.491 l 2.541,-0.065 a 0.465,0.461 66.375 0 0 0.445,-0.418 l 0.405,-3.787 a 0.465,0.461 66.375 0 0 -0.35,-0.512 z m -5.461,5.019 a 3.34,3.307 66.375 1 1 1.687,-4.384 3.336,3.303 66.375 0 1 -1.687,4.384 z"/>
  <path class="cls-1" style="stroke-width:1.4" d="m 40.237,13.369 a 12.603,12.09 49.771 0 0 -0.907,-1.231 12.603,12.09 49.771 0 0 -1.064,-1.099 l 0.749,-4.021 a 0.763,0.732 49.771 0 0 -0.506,-0.881 l -5.794,-2.203 a 0.763,0.732 49.771 0 0 -0.915,0.335 l -1.84,3.615 a 11.962,11.475 49.771 0 0 -2.919,0.47 l -3.106,-2.799 a 0.763,0.732 49.771 0 0 -0.982,-0.028 l -4.593,3.885 a 0.763,0.732 49.771 0 0 -0.135,0.974 l 2.245,3.527 a 11.718,11.241 49.771 0 0 -0.948,2.8 l -3.881,1.225 a 0.763,0.732 49.771 0 0 -0.482,0.847 l 1.212,6.079 a 0.763,0.732 49.771 0 0 0.785,0.645 l 4.084,-0.067 a 12.71,12.192 49.771 0 0 0.907,1.231 12.603,12.09 49.771 0 0 1.064,1.099 l -0.743,4.016 a 0.763,0.732 49.771 0 0 0.506,0.881 l 5.794,2.203 a 0.763,0.732 49.771 0 0 0.915,-0.335 l 1.84,-3.615 a 11.962,11.475 49.771 0 0 2.919,-0.47 l 3.106,2.799 a 0.763,0.732 49.771 0 0 0.982,0.028 l 4.581,-3.876 a 0.763,0.732 49.771 0 0 0.135,-0.974 l -2.245,-3.527 a 11.718,11.241 49.771 0 0 0.948,-2.8 l 3.87,-1.215 a 0.763,0.732 49.771 0 0 0.482,-0.847 l -1.212,-6.079 a 0.763,0.732 49.771 0 0 -0.785,-0.645 z m -5.957,10.215 a 5.477,5.254 49.771 1 1 0.468,-7.571 5.47,5.247 49.771 0 1 -0.468,7.571 z"/>
</svg>
