<?xml version="1.0" encoding="UTF-8" standalone="no"?>
<svg
   id="Layer_2"
   data-name="Layer 2"
   viewBox="0 0 48 48"
   version="1.1"
   sodipodi:docname="settings.svg"
   inkscape:version="1.4.4 (dcaf3e7, 2026-05-05)"
   inkscape:export-filename="settings.png"
   inkscape:export-xdpi="106.64947"
   inkscape:export-ydpi="106.64947"
   xmlns:inkscape="http://www.inkscape.org/namespaces/inkscape"
   xmlns:sodipodi="http://sodipodi.sourceforge.net/DTD/sodipodi-0.dtd"
   xmlns="http://www.w3.org/2000/svg"
   xmlns:svg="http://www.w3.org/2000/svg">
  <sodipodi:namedview
     id="namedview1"
     pagecolor="#505050"
     bordercolor="#eeeeee"
     borderopacity="1"
     inkscape:showpageshadow="0"
     inkscape:pageopacity="0"
     inkscape:pagecheckerboard="0"
     inkscape:deskcolor="#505050"
     inkscape:zoom="18.591015"
     inkscape:cx="18.315299"
     inkscape:cy="26.571975"
     inkscape:window-width="2415"
     inkscape:window-height="1560"
     inkscape:window-x="133"
     inkscape:window-y="-12"
     inkscape:window-maximized="1"
     inkscape:current-layer="Layer_2" />
  <defs
     id="defs1">
    <style
       id="style1">.cls-1{fill:none;stroke:#000;stroke-linecap:round;stroke-linejoin:round;}</style>
  </defs>
  <path
     class="cls-1"
     d="m 22.329757,35.06709 a 7.6858956,7.6092534 66.374887 0 0 -0.313812,-0.878352 7.6858956,7.6092534 66.374887 0 0 -0.431981,-0.826663 l 1.195215,-2.244273 a 0.46524792,0.46060856 66.374887 0 0 -0.138756,-0.604541 l -3.055864,-2.27385 a 0.46524792,0.46060856 66.374887 0 0 -0.609538,0.04325 l -1.772357,1.821294 a 7.2950874,7.2223422 66.374887 0 0 -1.833022,-0.213833 l -1.337357,-2.172427 a 0.46524792,0.46060856 66.374887 0 0 -0.582351,-0.182008 l -3.4688703,1.517322 a 0.46524792,0.46060856 66.374887 0 0 -0.261659,0.551166 l 0.6874733,2.456696 a 7.1462081,7.0749475 66.374887 0 0 -1.0872333,1.491184 l -2.548963,0.06885 a 0.46524792,0.46060856 66.374887 0 0 -0.445467,0.418289 l -0.404567,3.787484 a 0.46524792,0.46060856 66.374887 0 0 0.349748,0.512246 l 2.455116,0.647575 a 7.7510303,7.6737386 66.374887 0 0 0.313816,0.878352 7.6858956,7.6092534 66.374887 0 0 0.431977,0.826664 l -1.190995,2.242432 a 0.46524792,0.46060856 66.374887 0 0 0.138746,0.604539 l 3.0558643,2.273852 a 0.46524792,0.46060856 66.374887 0 0 0.609537,-0.04325 l 1.772355,-1.821333 a 7.2950874,7.2223422 66.374887 0 0 1.83303,0.213828 L 17.0272,46.33401 a 0.46524792,0.46060856 66.374887 0 0 0.582349,0.18199 l 3.460432,-1.513629 a 0.46524792,0.46060856 66.374887 0 0 0.261656,-0.551167 l -0.687472,-2.456688 a 7.1462081,7.0749475 66.374887 0 0 1.087238,-1.491189 l 2.540522,-0.06517 A 0.46524792,0.46060856 66.374887 0 0 24.71739,40.01987 l 0.404567,-3.787484 a 0.46524792,0.46060856 66.374887 0 0 -0.349749,-0.512247 z m -5.461315,5.01929 a 3.3404801,3.3071695 66.374887 1 1 1.687069,-4.384008 3.3358276,3.3025634 66.374887 0 1 -1.687069,4.384008 z"
     id="path1-2"
     style="fill:none;stroke:#000000;stroke-width:1.4;stroke-linecap:round;stroke-linejoin:round;stroke-dasharray:none" />
  <path
     class="cls-1"
     d="m 41.643709,14.348482 a 12.602821,12.089619 49.770688 0 0 -0.907192,-1.23104 12.602821,12.089619 49.770688 0 0 -1.063633,-1.098701 l 0.74897,-4.0209966 A 0.76288265,0.73181712 49.770688 0 0 39.916089,7.1165939 L 34.122203,4.9133189 A 0.76288265,0.73181712 49.770688 0 0 33.207015,5.2478504 L 31.366946,8.862872 a 11.962,11.474892 49.770688 0 0 -2.918574,0.4704739 l -3.10561,-2.798685 a 0.76288265,0.73181712 49.770688 0 0 -0.982443,-0.028252 l -4.592657,3.8851251 a 0.76288265,0.73181712 49.770688 0 0 -0.134989,0.973536 l 2.245182,3.526556 a 11.717878,11.240711 49.770688 0 0 -0.947747,2.800213 l -3.881197,1.224843 a 0.76288265,0.73181712 49.770688 0 0 -0.481604,0.847076 l 1.212403,6.078946 a 0.76288265,0.73181712 49.770688 0 0 0.785125,0.644829 l 4.083932,-0.06736 a 12.709625,12.192073 49.770688 0 0 0.907193,1.231039 12.602821,12.089619 49.770688 0 0 1.063635,1.098701 l -0.743383,4.01627 a 0.76288265,0.73181712 49.770688 0 0 0.505764,0.881149 l 5.793883,2.203277 a 0.76288265,0.73181712 49.770688 0 0 0.91519,-0.334532 l 1.840068,-3.615021 a 11.962,11.474892 49.770688 0 0 2.918575,-0.470476 l 3.105611,2.798686 a 0.76288265,0.73181712 49.770688 0 0 0.982442,0.02825 l 4.581482,-3.875674 a 0.76288265,0.73181712 49.770688 0 0 0.13499,-0.973536 L 42.409033,25.88175 a 11.717878,11.240711 49.770688 0 0 0.94775,-2.800214 l 3.870018,-1.215387 a 0.76288265,0.73181712 49.770688 0 0 0.481608,-0.847082 L 46.496006,14.940115 A 0.76288265,0.73181712 49.770688 0 0 45.71088,14.295288 Z m -5.957045,10.215362 a 5.4774975,5.2544469 49.770688 1 1 0.468371,-7.570732 5.4698686,5.2471288 49.770688 0 1 -0.468371,7.570732 z"
     id="path1-8-7"
     style="fill:none;stroke:#000000;stroke-width:1.4;stroke-linecap:round;stroke-linejoin:round;stroke-dasharray:none"
     inkscape:label="path1-8" />
  <path
     class="cls-1"
     d="m 20.923297,34.087671 a 7.6858956,7.6092534 66.374887 0 0 -0.313812,-0.878352 7.6858956,7.6092534 66.374887 0 0 -0.431981,-0.826663 l 1.195215,-2.244273 a 0.46524792,0.46060856 66.374887 0 0 -0.138756,-0.604541 l -3.055864,-2.27385 a 0.46524792,0.46060856 66.374887 0 0 -0.609538,0.04325 l -1.772357,1.821294 A 7.2950874,7.2223422 66.374887 0 0 13.963182,28.910703 L 12.625825,26.738276 A 0.46524792,0.46060856 66.374887 0 0 12.043474,26.556268 L 8.5746039,28.07359 a 0.46524792,0.46060856 66.374887 0 0 -0.2616586,0.551166 l 0.6874729,2.456696 A 7.1462081,7.0749475 66.374887 0 0 7.9131849,32.572636 L 5.364222,32.64149 a 0.46524792,0.46060856 66.374887 0 0 -0.4454674,0.418289 l -0.4045668,3.787484 a 0.46524792,0.46060856 66.374887 0 0 0.3497485,0.512246 l 2.4551158,0.647575 a 7.7510303,7.6737386 66.374887 0 0 0.3138164,0.878352 7.6858956,7.6092534 66.374887 0 0 0.431977,0.826664 l -1.1909951,2.242432 a 0.46524792,0.46060856 66.374887 0 0 0.138746,0.604539 l 3.0558636,2.273852 a 0.46524792,0.46060856 66.374887 0 0 0.609537,-0.04325 l 1.772355,-1.821333 a 7.2950874,7.2223422 66.374887 0 0 1.83303,0.213828 l 1.337358,2.172427 a 0.46524792,0.46060856 66.374887 0 0 0.582349,0.18199 l 3.460432,-1.513633 a 0.46524792,0.46060856 66.374887 0 0 0.261656,-0.551167 l -0.687472,-2.456688 a 7.1462081,7.0749475 66.374887 0 0 1.087238,-1.491189 l 2.540522,-0.06517 a 0.46524792,0.46060856 66.374887 0 0 0.445465,-0.418287 l 0.404567,-3.787484 A 0.46524792,0.46060856 66.374887 0 0 23.365748,34.74072 Z m -5.461315,5.01929 a 3.3404801,3.3071695 66.374887 1 1 1.687069,-4.384008 3.3358276,3.3025634 66.374887 0 1 -1.687069,4.384008 z"
     id="path1"
     style="stroke-width:1.4;stroke-dasharray:none;stroke:#ffffff;stroke-opacity:1" />
  <path
     class="cls-1"
     d="m 40.237249,13.369063 a 12.602821,12.089619 49.770688 0 0 -0.907192,-1.23104 12.602821,12.089619 49.770688 0 0 -1.063633,-1.098701 l 0.74897,-4.0209965 A 0.76288265,0.73181712 49.770688 0 0 38.509629,6.137175 L 32.715743,3.9338998 A 0.76288265,0.73181712 49.770688 0 0 31.800555,4.2684315 L 29.960486,7.8834531 A 11.962,11.474892 49.770688 0 0 27.041912,8.3539274 L 23.936302,5.555242 a 0.76288265,0.73181712 49.770688 0 0 -0.982443,-0.028252 l -4.592657,3.8851248 a 0.76288265,0.73181712 49.770688 0 0 -0.134989,0.9735363 l 2.245182,3.526556 a 11.717878,11.240711 49.770688 0 0 -0.947747,2.800213 l -3.881197,1.224843 a 0.76288265,0.73181712 49.770688 0 0 -0.481604,0.847076 l 1.212403,6.078946 a 0.76288265,0.73181712 49.770688 0 0 0.785125,0.644829 l 4.083932,-0.06736 a 12.709625,12.192073 49.770688 0 0 0.907193,1.231039 12.602821,12.089619 49.770688 0 0 1.063635,1.098701 l -0.743383,4.01627 a 0.76288265,0.73181712 49.770688 0 0 0.505764,0.881149 l 5.793883,2.203277 a 0.76288265,0.73181712 49.770688 0 0 0.91519,-0.334532 l 1.840068,-3.615021 a 11.962,11.474892 49.770688 0 0 2.918575,-0.470476 l 3.105611,2.798686 a 0.76288265,0.73181712 49.770688 0 0 0.982442,0.02825 l 4.581482,-3.875674 a 0.76288265,0.73181712 49.770688 0 0 0.13499,-0.973536 l -2.245184,-3.526556 a 11.717878,11.240711 49.770688 0 0 0.94775,-2.800214 l 3.870018,-1.215387 a 0.76288265,0.73181712 49.770688 0 0 0.481608,-0.847082 L 45.089546,13.960696 A 0.76288265,0.73181712 49.770688 0 0 44.30442,13.315869 Z m -5.957045,10.215362 a 5.4774975,5.2544469 49.770688 1 1 0.468371,-7.570732 5.4698686,5.2471288 49.770688 0 1 -0.468371,7.570732 z"
     id="path1-8"
     style="fill:none;stroke:#ffffff;stroke-width:1.4;stroke-linecap:round;stroke-linejoin:round;stroke-dasharray:none;stroke-opacity:1"
     inkscape:label="path1-8" />
</svg>
